<svg width="16" height="16" viewBox="0 0 16 16" fill="none" xmlns="http://www.w3.org/2000/svg">
<g clip-path="url(#clip0_109_447)">
<path d="M10.3667 8.66665C10.8667 8.66665 11.3067 8.39331 11.5333 7.97998L13.92 3.65331C14.1667 3.21331 13.8467 2.66665 13.34 2.66665H3.47332L2.84666 1.33331H0.666656V2.66665H1.99999L4.39999 7.72665L3.49999 9.35331C3.01332 10.2466 3.65332 11.3333 4.66666 11.3333H12.6667V9.99998H4.66666L5.39999 8.66665H10.3667ZM4.10666 3.99998H12.2067L10.3667 7.33331H5.68666L4.10666 3.99998ZM4.66666 12C3.93332 12 3.33999 12.6 3.33999 13.3333C3.33999 14.0666 3.93332 14.6666 4.66666 14.6666C5.39999 14.6666 5.99999 14.0666 5.99999 13.3333C5.99999 12.6 5.39999 12 4.66666 12ZM11.3333 12C10.6 12 10.0067 12.6 10.0067 13.3333C10.0067 14.0666 10.6 14.6666 11.3333 14.6666C12.0667 14.6666 12.6667 14.0666 12.6667 13.3333C12.6667 12.6 12.0667 12 11.3333 12Z" fill="white"/>
</g>
<defs>
<clipPath id="clip0_109_447">
<rect width="16" height="16" fill="white"/>
</clipPath>
</defs>
</svg>
