<svg width="200" height="73" viewBox="0 0 200 73" fill="none" xmlns="http://www.w3.org/2000/svg">
<g clip-path="url(#clip0_28_168)">
<path d="M13.3293 59.2445C12.6701 59.2882 12.0085 59.2145 11.3746 59.0268C11.1466 58.9427 10.9491 58.7909 10.8077 58.5914H10.8468L9.68051 56.2889C9.22441 55.3652 8.67059 54.3097 8.03205 53.043C7.39352 51.7763 6.72893 50.5162 6.07737 49.1769C5.42581 47.8376 4.72864 46.5379 4.07707 45.2185C3.42551 43.899 2.78047 42.7445 2.25922 41.6955L0.988671 39.1621C0.802856 38.8284 0.639592 38.4823 0.5 38.1263C0.5 38.0537 0.617281 37.9746 0.845328 37.902C1.07337 37.8294 1.36658 37.7568 1.71842 37.6843C2.08464 37.6103 2.45434 37.5553 2.82608 37.5193C3.2105 37.5193 3.57537 37.4666 3.91418 37.4666C4.253 37.4666 4.61135 37.4666 4.98926 37.5061C5.36717 37.5457 5.70598 37.5655 6.02524 37.6117C6.34451 37.6579 6.60513 37.7173 6.82015 37.7766C6.97149 37.7997 7.11236 37.8687 7.22412 37.9746L16.1375 54.8704L18.027 51.0374C17.3038 49.5793 16.548 48.0949 15.7726 46.5841C14.9973 45.0733 14.3066 43.7077 13.6876 42.4674L12.163 39.3996C11.9436 38.9868 11.7478 38.5617 11.5766 38.1263C11.5766 38.0537 11.6873 37.9746 11.9154 37.902C12.1434 37.8294 12.4366 37.7568 12.7885 37.6843C13.1403 37.6117 13.5117 37.5589 13.8961 37.5193C14.2805 37.4797 14.6519 37.4666 14.9907 37.4666C15.3295 37.4666 15.6879 37.4666 16.0593 37.5061C16.4307 37.5457 16.7825 37.5655 17.0953 37.6117C17.408 37.6579 17.6752 37.7173 17.8967 37.7766C18.0462 37.7993 18.1851 37.8685 18.2942 37.9746L21.552 44.1431C22.0341 43.2195 22.5032 42.309 22.9463 41.4052C23.3894 40.5013 23.8259 39.6305 24.2494 38.7662C24.3314 38.6849 24.3938 38.5856 24.4319 38.476C24.484 38.3506 24.5361 38.2318 24.5948 38.1131C24.6576 37.9911 24.739 37.8798 24.8358 37.7832C24.9594 37.6878 25.1053 37.6264 25.2593 37.6051C25.8197 37.6051 26.1259 37.6513 26.1846 37.7502C26.2535 37.8723 26.2853 38.0124 26.2758 38.1527C26.1935 38.3963 26.0911 38.6325 25.9696 38.8586C25.7611 39.2874 25.4874 39.8482 25.1356 40.5409C24.7837 41.2337 24.3732 42.0385 23.8976 42.9622C23.4219 43.8858 22.9202 44.8622 22.412 45.8584L27.1749 54.8704L29.1296 51.0176C29.7812 49.6981 30.4979 48.2994 31.2016 46.914L33.2931 42.7774C33.9838 41.3986 34.6418 40.0725 35.2478 38.7794C35.3254 38.6946 35.3872 38.5963 35.4302 38.4891C35.4779 38.3652 35.5322 38.2441 35.5931 38.1263C35.6517 38.0033 35.731 37.8916 35.8277 37.7964C35.9623 37.6791 36.1274 37.6036 36.3033 37.5787C36.8571 37.5787 37.1699 37.6249 37.2285 37.7239C37.2945 37.8471 37.326 37.9862 37.3198 38.1263C37.1913 38.4647 37.0389 38.7932 36.8637 39.1093L35.6843 41.4778C35.1957 42.4542 34.6484 43.5559 34.0294 44.7764C33.4104 45.997 32.7784 47.2637 32.1203 48.5501C31.4622 49.8366 30.8172 51.0967 30.1656 52.3238C29.514 53.551 28.9732 54.6527 28.4911 55.6225C28.25 56.0844 27.9829 56.5792 27.6897 57.1004C27.3965 57.6215 27.1489 58.1163 26.9273 58.5782C26.7656 58.7984 26.5365 58.9584 26.2758 59.0334C25.6386 59.2031 24.9789 59.2699 24.3211 59.2313C23.662 59.2745 23.0005 59.2008 22.3664 59.0136C22.1401 58.9298 21.9445 58.7779 21.8061 58.5782L20.6984 56.2889L18.9262 52.7791L17.4732 55.6225C17.2256 56.0844 16.965 56.5792 16.6718 57.1004C16.3786 57.6215 16.1245 58.1163 15.9094 58.5782C15.7463 58.797 15.5178 58.9566 15.2579 59.0334C14.6299 59.2055 13.9791 59.2768 13.3293 59.2445Z" fill="#0B1547"/>
<path d="M43.6725 48.4842C43.6756 49.8251 43.8709 51.1585 44.2524 52.4426C44.5771 53.5203 45.0938 54.5287 45.777 55.418C46.407 56.2211 47.2091 56.8686 48.1226 57.3115C49.0724 57.761 50.1106 57.9866 51.1589 57.9712C51.8091 57.9705 52.4544 57.859 53.068 57.6413C53.6728 57.4266 54.2554 57.1526 54.8077 56.8233C55.3364 56.5042 55.8475 56.1562 56.3388 55.7809L57.5898 54.7979L57.9873 54.468C58.1259 54.3599 58.2796 54.2732 58.4434 54.2107C58.6689 54.1266 58.9026 54.0669 59.1406 54.0326C59.5067 53.973 59.8774 53.9465 60.2482 53.9534C60.8883 53.9456 61.5277 54.0008 62.1573 54.1183C62.6785 54.2305 62.9652 54.3558 63.0108 54.501C62.9652 54.4284 62.8349 54.501 62.6264 54.6857L61.9227 55.3454C61.2547 56.0204 60.5163 56.6199 59.7204 57.1333C58.9384 57.633 58.1035 58.0424 57.2315 58.3538C56.2906 58.6954 55.3164 58.9342 54.3255 59.0664C53.1806 59.2181 52.0269 59.2908 50.8722 59.2841C49.0396 59.3226 47.2124 59.0688 45.4578 58.532C43.9619 58.0677 42.5728 57.305 41.3725 56.2889C40.2505 55.341 39.3588 54.1447 38.7662 52.7923C38.1591 51.3636 37.855 49.8217 37.8736 48.2665C37.8648 46.7426 38.2085 45.2379 38.877 43.8726C39.5254 42.5238 40.4545 41.3332 41.6005 40.3826C42.8376 39.3701 44.2493 38.5984 45.764 38.1065C47.4585 37.5439 49.2324 37.2653 51.0156 37.2818C54.1906 37.2848 57.2759 38.3493 59.7921 40.31C60.9229 41.1873 61.867 42.2869 62.5678 43.5427C63.2351 44.7526 63.585 46.1154 63.5842 47.5012C63.5842 48.1345 62.52 48.4512 60.3916 48.4512L43.6725 48.4842ZM57.9156 47.1647C57.7845 46.0024 57.5041 44.8624 57.0816 43.7736C56.709 42.7921 56.1881 41.8751 55.5374 41.0555C54.9518 40.3168 54.222 39.7081 53.3938 39.2676C52.5915 38.835 51.6965 38.6084 50.7875 38.6079C49.8988 38.6049 49.0241 38.832 48.2464 39.2676C47.4224 39.7288 46.6962 40.3497 46.1093 41.0951C45.4502 41.9085 44.9164 42.8183 44.526 43.7934C44.0933 44.8619 43.8062 45.9849 43.6725 47.1317L57.9156 47.1647Z" fill="#0B1547"/>
<path d="M67.6565 0.765344C67.6565 0.57402 67.9236 0.395891 68.4579 0.237554C69.1451 0.0599733 69.8534 -0.019961 70.5624 4.7911e-05C71.3141 -0.0542066 72.0688 0.0514159 72.7777 0.310125C73.1687 0.514643 73.3642 0.719162 73.3642 0.910486V58.2219C73.3642 58.4198 73.0644 58.5914 72.4715 58.7365C71.7982 58.8905 71.1093 58.9636 70.4191 58.9542C69.8587 58.9542 69.4027 58.9542 69.0378 58.9015C68.7498 58.8767 68.4644 58.8282 68.1842 58.7563C68.028 58.7205 67.884 58.6431 67.7672 58.532C67.6928 58.4466 67.6532 58.3358 67.6565 58.2219V0.765344Z" fill="#0B1547"/>
<path d="M80.59 0.765342C80.59 0.574018 80.8571 0.395889 81.3914 0.237552C82.0809 0.0604525 82.7913 -0.0194696 83.5024 4.59822e-05C84.2541 -0.0536235 85.0086 0.0519823 85.7178 0.310123C86.1022 0.514642 86.2976 0.71916 86.2976 0.910484V58.2219C86.2976 58.4198 86.0044 58.5914 85.405 58.7365C84.7317 58.8905 84.0428 58.9636 83.3526 58.9542C82.7988 58.9542 82.3362 58.9542 81.9713 58.9014C81.6835 58.8755 81.3981 58.827 81.1177 58.7563C80.9621 58.7187 80.8186 58.6415 80.7007 58.532C80.6263 58.4466 80.5867 58.3358 80.59 58.2219V0.765342Z" fill="#0B1547"/>
<path d="M95.7844 58.9542C95.0282 58.9931 94.2702 58.9309 93.53 58.7695C93.1651 58.6507 92.9827 58.466 92.9827 58.2219V38.1263C92.9827 37.9019 93.2628 37.7238 93.8232 37.5787C94.5123 37.4129 95.2196 37.3375 95.9277 37.3544C96.9963 37.3544 97.726 37.5919 98.13 38.0669C98.5162 38.5369 98.7444 39.1192 98.7816 39.7294C99.9702 39.009 101.239 38.4332 102.561 38.0141C104.039 37.5592 105.577 37.3367 107.122 37.3544C108.572 37.3134 110.017 37.5369 111.389 38.0141C112.417 38.386 113.344 38.9986 114.093 39.802C114.77 40.5524 115.258 41.458 115.514 42.4409C115.785 43.494 115.919 44.5787 115.911 45.6671V58.2021C115.911 58.4264 115.644 58.5979 115.116 58.7365C114.422 58.8845 113.714 58.9509 113.005 58.9344C111.09 58.9344 110.132 58.6903 110.132 58.2021V45.3438C110.137 44.4488 110.089 43.5544 109.988 42.6653C109.914 41.9438 109.736 41.2371 109.461 40.5673C109.243 40.0316 108.893 39.5615 108.444 39.2016C107.975 38.8597 107.406 38.6857 106.828 38.7068C106.102 38.7264 105.388 38.9065 104.737 39.2346C103.955 39.6164 103.213 40.0761 102.522 40.6069C101.771 41.1706 101.065 41.7926 100.41 42.4673C99.7865 43.0918 99.1991 43.7527 98.6513 44.4465V58.2219C98.6513 58.4462 98.3841 58.6177 97.8498 58.7563C97.171 58.9016 96.4781 58.968 95.7844 58.9542Z" fill="#0B1547"/>
<path d="M122.111 0.781812C122.111 0.564098 122.385 0.379372 122.945 0.234229C123.635 0.074243 124.342 0.00111882 125.05 0.0165157C125.802 -0.0436295 126.557 0.062164 127.265 0.326593C127.63 0.531111 127.812 0.73563 127.812 0.926954V48.6854C128.945 47.8897 130.032 47.0307 131.07 46.1124C132.158 45.1492 133.253 44.1332 134.328 43.1568C135.403 42.1804 136.511 41.1776 137.586 40.2011C138.62 39.2788 139.708 38.4196 140.844 37.6282L141.495 37.2653C142.003 37.3115 142.498 37.3709 142.981 37.4303C143.463 37.4896 143.893 37.5556 144.284 37.6282C144.579 37.6844 144.87 37.7571 145.157 37.8459C145.372 37.9185 145.483 37.991 145.483 38.0702C145.208 38.2003 144.946 38.3572 144.701 38.5386C144.18 38.8817 143.508 39.3303 142.681 39.8581L139.866 41.7581C138.811 42.4641 137.755 43.1766 136.687 43.9089L133.618 45.9871C132.634 46.6468 131.793 47.2142 131.09 47.7024L129.747 48.6128C130.301 48.6128 130.888 48.5732 131.507 48.56H133.305C134.965 48.5344 136.625 48.6381 138.27 48.8701C139.286 48.9949 140.268 49.3246 141.156 49.8399C141.784 50.2129 142.26 50.7999 142.498 51.4959C142.735 52.2688 142.847 53.0751 142.831 53.8841C142.831 54.2536 142.831 54.6362 142.831 55.0387C142.831 55.4411 142.831 55.8567 142.772 56.2922C142.714 56.7276 142.7 57.4137 142.7 58.0075C142.7 58.6012 142.668 59.2478 142.668 59.8811C142.652 60.695 142.718 61.5084 142.863 62.309C143 62.9291 143.222 63.2656 143.515 63.3118C143.437 63.3118 143.424 63.2194 143.456 63.1138C143.512 62.9702 143.586 62.8348 143.678 62.7114C143.782 62.5531 143.906 62.3815 144.036 62.1968C144.166 62.0121 144.31 61.8405 144.46 61.669H144.421C144.512 61.5545 144.623 61.4564 144.746 61.3787C144.948 61.2576 145.168 61.1707 145.398 61.1214C145.762 61.0362 146.133 60.981 146.506 60.9565C146.962 60.9235 147.561 60.9037 148.284 60.9037C148.597 61.1016 148.903 61.2732 149.197 61.4315C149.49 61.5899 149.653 61.6492 149.705 61.5964C149.664 61.8216 149.577 62.0355 149.449 62.2242C149.321 62.4129 149.155 62.5721 148.962 62.6916C148.449 63.0848 147.888 63.4107 147.294 63.6614C146.632 63.9354 145.95 64.156 145.255 64.3212C144.661 64.4782 144.051 64.5645 143.437 64.5785C142.3 64.6154 141.165 64.4548 140.081 64.1035C139.323 63.8546 138.636 63.4221 138.081 62.8434C137.609 62.3286 137.277 61.6991 137.117 61.0159C136.946 60.3187 136.861 59.6031 136.862 58.8849C136.862 57.9877 136.895 57.1366 136.973 56.3317C136.973 55.9887 137.019 55.6324 137.045 55.2564C137.071 54.8803 137.077 54.5438 137.077 54.2536C137.096 53.4396 137.03 52.6259 136.882 51.8257C136.795 51.3418 136.589 50.8879 136.283 50.5063C136.012 50.2126 135.652 50.0197 135.26 49.9587C134.792 49.8827 134.319 49.8474 133.846 49.8531L127.812 50.1764V58.2384C127.812 58.4627 127.545 58.6342 127.011 58.7728C126.319 58.9211 125.613 58.9875 124.906 58.9707C124.162 59.0072 123.417 58.9406 122.691 58.7728C122.3 58.6342 122.111 58.4627 122.111 58.2384V0.781812Z" fill="#0B1547"/>
<path d="M152.835 48.4841C152.84 49.8254 153.038 51.1588 153.422 52.4426C153.733 53.5204 154.242 54.5296 154.92 55.418C155.547 56.2241 156.35 56.8722 157.266 57.3114C158.213 57.7615 159.249 57.9872 160.296 57.9712C160.946 57.9711 161.591 57.8596 162.205 57.6413C162.811 57.4266 163.396 57.1526 163.951 56.8232C164.477 56.5042 164.986 56.1562 165.475 55.7808C165.945 55.418 166.368 55.1211 166.726 54.7978L167.13 54.468C167.268 54.3586 167.422 54.2717 167.586 54.2107C167.797 54.1291 168.015 54.0695 168.238 54.0325C168.606 53.973 168.979 53.9465 169.352 53.9534C169.99 53.9455 170.627 54.0008 171.255 54.1183C171.776 54.2304 172.063 54.3558 172.108 54.5009C172.063 54.4284 171.932 54.5009 171.73 54.6857L171.02 55.3454C170.355 56.0202 169.618 56.6197 168.824 57.1333C168.042 57.6316 167.207 58.0409 166.335 58.3538C165.392 58.6945 164.416 58.9334 163.423 59.0663C162.28 59.2182 161.129 59.291 159.976 59.284C158.142 59.3128 156.314 59.0479 154.562 58.499C153.064 58.0355 151.672 57.2728 150.47 56.2558C149.348 55.308 148.456 54.1116 147.864 52.7592C147.259 51.33 146.957 49.7882 146.978 48.2334C146.964 46.712 147.298 45.208 147.955 43.8396C148.606 42.4923 149.534 41.3021 150.678 40.3496C151.943 39.3432 153.382 38.5826 154.92 38.1065C156.615 37.5443 158.389 37.2657 160.172 37.2818C163.353 37.2834 166.445 38.3478 168.968 40.31C170.093 41.1916 171.034 42.2903 171.737 43.5427C172.404 44.7525 172.754 46.1154 172.753 47.5011C172.753 48.1345 171.687 48.4511 169.554 48.4511L152.835 48.4841ZM167.085 47.1647C166.951 46.0021 166.669 44.8621 166.244 43.7736C165.869 42.794 165.346 41.8792 164.694 41.0621C164.109 40.3218 163.379 39.7129 162.55 39.2742C161.748 38.84 160.853 38.6134 159.944 38.6145C159.055 38.6114 158.18 38.8385 157.403 39.2742C156.58 39.7291 155.852 40.3406 155.259 41.0753C154.6 41.8887 154.066 42.7984 153.676 43.7736C153.246 44.843 152.959 45.9657 152.822 47.1119L167.085 47.1647Z" fill="#0B1547"/>
<path d="M191.03 58.189C189.222 58.9503 187.28 59.334 185.322 59.3171C183.668 59.3814 182.02 59.0774 180.494 58.4265C179.352 57.9086 178.361 57.0993 177.621 56.0778C176.933 55.0929 176.468 53.9667 176.259 52.7791C176.028 51.5348 175.913 50.2715 175.913 49.0054V38.1264C175.913 37.902 176.194 37.7239 176.747 37.5788C177.439 37.4134 178.148 37.338 178.858 37.3545C179.344 37.3492 179.828 37.369 180.311 37.4138C180.595 37.4327 180.876 37.4881 181.145 37.5788C181.295 37.6224 181.429 37.7096 181.53 37.8295C181.586 37.9182 181.618 38.0208 181.621 38.1264V49.1044C181.621 50.127 181.66 51.1628 181.745 52.225C181.815 53.2028 181.992 54.1697 182.273 55.108C182.495 55.8911 182.88 56.6174 183.4 57.239C183.642 57.5196 183.943 57.7409 184.282 57.8861C184.62 58.0312 184.987 58.0965 185.355 58.0768C185.881 58.0689 186.406 58.0026 186.918 57.8789C187.502 57.7459 188.07 57.549 188.612 57.2917C189.144 57.0465 189.644 56.7339 190.098 56.3615C190.524 56.0299 190.856 55.5908 191.062 55.0882V38.1264C191.062 37.9284 191.349 37.7503 191.916 37.592C192.587 37.4212 193.277 37.3414 193.968 37.3545C194.725 37.3152 195.484 37.384 196.223 37.559C196.588 37.6909 196.77 37.8823 196.77 38.1264V52.8649L197.676 52.6802C197.988 52.8715 198.327 53.0562 198.62 53.2278C198.847 53.3634 199.093 53.4614 199.35 53.518L198.77 53.8479C198.485 54.0055 198.211 54.1818 197.949 54.3757C197.681 54.5783 197.426 54.7987 197.187 55.0354C197 55.1883 196.856 55.3886 196.77 55.616V67.4385C196.798 68.2424 196.625 69.0405 196.266 69.7582C195.907 70.4758 195.374 71.0896 194.718 71.5421C193.349 72.5251 191.46 73.0199 189.062 73.0199C188.37 73.0292 187.677 72.9917 186.99 72.9077C186.482 72.8352 186.228 72.6768 186.228 72.4393C186.229 72.3425 186.261 72.2488 186.32 72.1725C186.379 72.0963 186.461 72.0416 186.553 72.0171C186.825 71.9211 187.107 71.859 187.394 71.8324C187.763 71.8023 188.133 71.8023 188.502 71.8324L189.648 71.9049H189.681C189.994 71.9049 190.248 71.7004 190.443 71.298C190.66 70.8199 190.801 70.3099 190.86 69.7872C190.95 69.1308 191.007 68.4702 191.03 67.808C191.03 67.0757 191.062 66.3829 191.062 65.7298L191.03 58.189ZM199.5 53.4455C199.49 53.4571 199.478 53.4666 199.465 53.4734C199.451 53.4802 199.437 53.4842 199.422 53.4851H199.37C199.353 53.4917 199.334 53.4917 199.318 53.4851C199.435 53.5708 199.5 53.5444 199.5 53.4389V53.4455Z" fill="#0B1547"/>
</g>
<defs>
<clipPath id="clip0_28_168">
<rect width="199" height="73" fill="white" transform="translate(0.5)"/>
</clipPath>
</defs>
</svg>
