<svg width="32" height="34" viewBox="0 0 32 34" fill="none" xmlns="http://www.w3.org/2000/svg">
<rect width="32" height="33.0323" rx="16" fill="#AA767C"/>
<path d="M16.8039 21.9998C10.654 21.9998 7.14622 17.8706 7.00006 10.9998H10.0806C10.1818 16.0428 12.4529 18.1789 14.2518 18.6194V10.9998H17.1525V15.3491C18.9289 15.1619 20.7952 13.1799 21.4248 10.9998H24.3255C24.0882 12.1305 23.6153 13.2011 22.9363 14.1446C22.2573 15.0881 21.3867 15.8843 20.3792 16.4832C21.5039 17.0305 22.4972 17.8052 23.2937 18.7561C24.0903 19.707 24.6718 20.8126 25.0001 21.9998H21.8071C21.5124 20.9686 20.9136 20.0455 20.0856 19.3463C19.2576 18.647 18.2372 18.2026 17.1525 18.0688V21.9998H16.8039Z" fill="white"/>
</svg>
